<?xml version="1.0" encoding="UTF-8"?>
<svg version="1.1" xmlns="http://www.w3.org/2000/svg" width="500" height="500">
<path d="M0 0 C165 0 330 0 500 0 C500 165 500 330 500 500 C335 500 170 500 0 500 C0 335 0 170 0 0 Z " fill="#F0F0F0" transform="translate(0,0)"/>
<path d="M0 0 C24.09 0 48.18 0 73 0 C73 3.3 73 6.6 73 10 C54.19 10 35.38 10 16 10 C16 23.86 16 37.72 16 52 C26.32007317 51.88213801 26.32007317 51.88213801 36.63964844 51.72973633 C50.25673549 51.65185262 64.09129204 53.54029876 74.9453125 62.62890625 C76.52255811 64.3369285 77.76822936 66.02998272 79 68 C79.40992188 68.63292969 79.81984375 69.26585937 80.2421875 69.91796875 C84.43934453 77.63205391 84.11413873 86.71937799 82.33984375 95.12890625 C79.58606472 103.70019249 74.96249239 109.72372574 66.9375 113.875 C45.7394371 123.40293777 23.54637134 119 0 119 C0 79.73 0 40.46 0 0 Z " fill="#B08953" transform="translate(299,181)"/>
<path d="M0 0 C3.96 0 7.92 0 12 0 C12 39.27 12 78.54 12 119 C6.72 119 1.44 119 -4 119 C-4.33 87.98 -4.66 56.96 -5 25 C-10.61 35.56 -16.22 46.12 -22 57 C-28.5625 68.625 -28.5625 68.625 -31.6640625 74.0546875 C-37.09688967 83.65235109 -42.20847352 93.42723393 -47.37109375 103.171875 C-50.53389686 109.14056621 -53.74773859 115.0796249 -57 121 C-59.27709961 120.8815918 -59.27709961 120.8815918 -62 120 C-63.84594727 117.38989258 -63.84594727 117.38989258 -65.56640625 113.89453125 C-65.88170288 113.26793106 -66.19699951 112.64133087 -66.52185059 111.9957428 C-67.5514378 109.94223116 -68.5564144 107.87761214 -69.5625 105.8125 C-70.63522151 103.66190069 -71.71439156 101.51461596 -72.79380798 99.36737061 C-73.51531211 97.93094027 -74.23476144 96.49347601 -74.9521637 95.05499268 C-77.85092422 89.24984585 -80.91014759 83.54651913 -84.0625 77.875 C-89.41738832 68.18037679 -94.51611157 58.36064161 -99.57446289 48.50927734 C-103.96796563 39.95784198 -108.47411166 31.48604064 -113 23 C-113.33 54.68 -113.66 86.36 -114 119 C-116.31 119 -118.62 119 -121 119 C-121 80.06 -121 41.12 -121 1 C-117.04 1 -113.08 1 -109 1 C-101.11459734 15.69187104 -93.25123679 30.39487986 -85.4375 45.125 C-79.05121162 57.16296745 -72.62056264 69.17588399 -66.1484375 81.16796875 C-65.64280273 82.10688965 -65.13716797 83.04581055 -64.61621094 84.01318359 C-63.43419078 86.1975997 -62.24464335 88.37693778 -61.04785156 90.55322266 C-60.56126572 91.44331779 -60.56126572 91.44331779 -60.06484985 92.35139465 C-59.14829422 94.02780728 -58.22781593 95.70207348 -57.30712891 97.3762207 C-56 100 -56 100 -56 102 C-55.34 102 -54.68 102 -54 102 C-53.72704102 101.12053711 -53.45408203 100.24107422 -53.17285156 99.33496094 C-52.07951536 96.22609906 -50.81003872 93.52812523 -49.234375 90.640625 C-48.40474243 89.11091064 -48.40474243 89.11091064 -47.55834961 87.55029297 C-46.96159424 86.46119629 -46.36483887 85.37209961 -45.75 84.25 C-44.80033036 82.50223386 -43.85066812 80.75446364 -42.901474 79.00643921 C-41.91831765 77.19720274 -40.93314858 75.38907286 -39.94775391 73.58105469 C-36.922023 68.02440191 -33.93238722 62.44831441 -30.9375 56.875 C-20.70704454 37.87129682 -10.42991601 18.89507831 0 0 Z " fill="#B08852" transform="translate(249,181)"/>
<path d="M0 0 C4.74375 -0.0825 9.4875 -0.165 14.375 -0.25 C15.8501709 -0.28641602 17.3253418 -0.32283203 18.84521484 -0.36035156 C28.14877141 -0.43824765 35.80323833 0.6290192 43.375 6.3125 C50.12956525 13.22788823 51.44166871 20.18481774 51.3359375 29.60546875 C50.73016924 35.72654571 48.49545611 40.43944504 44.203125 44.84375 C35.05928116 52.30512657 25.33647683 52.40489821 13.9375 52.1875 C9.338125 52.125625 4.73875 52.06375 0 52 C0 34.84 0 17.68 0 0 Z " fill="#EFEFEE" transform="translate(314,241)"/>
<path d="M0 0 C10.46428571 0 10.46428571 0 14 3 C16.36397529 6.80185717 16.14273755 9.56209008 15.546875 13.875 C14.7792448 16.85779164 13.49076863 18.24181038 11 20 C8 21 8 21 0 21 C0 14.07 0 7.14 0 0 Z " fill="#6F6F6F" transform="translate(130,351)"/>
<path d="M0 0 C10 0 10 0 14 3 C14.375 6.0625 14.375 6.0625 14 9 C13.34 9.66 12.68 10.32 12 11 C12.39238598 14.66226912 14.31566883 17.77780124 16 21 C13.75 20.875 13.75 20.875 11 20 C7 14.91891892 7 14.91891892 7 12 C6.01 12 5.02 12 4 12 C4 14.97 4 17.94 4 21 C2.68 21 1.36 21 0 21 C0 14.07 0 7.14 0 0 Z " fill="#6D6D6D" transform="translate(206,391)"/>
<path d="M0 0 C4.62 0 9.24 0 14 0 C14 1.32 14 2.64 14 4 C10.7 4 7.4 4 4 4 C4 5.32 4 6.64 4 8 C6.31 8 8.62 8 11 8 C11 9.32 11 10.64 11 12 C8.69 12 6.38 12 4 12 C4 13.98 4 15.96 4 18 C6.97 18 9.94 18 13 18 C13 18.99 13 19.98 13 21 C8.71 21 4.42 21 0 21 C0 14.07 0 7.14 0 0 Z " fill="#747474" transform="translate(360,391)"/>
<path d="M0 0 C0.66 0 1.32 0 2 0 C3.33912585 3.12254943 4.67030658 6.24842358 6 9.375 C6.3815625 10.26445312 6.763125 11.15390625 7.15625 12.0703125 C7.69765625 13.34648437 7.69765625 13.34648437 8.25 14.6484375 C8.58515625 15.43395996 8.9203125 16.21948242 9.265625 17.02880859 C10 19 10 19 10 21 C8.35 20.67 6.7 20.34 5 20 C5 19.01 5 18.02 5 17 C2.36 17 -0.28 17 -3 17 C-3.33 18.32 -3.66 19.64 -4 21 C-5.32 21 -6.64 21 -8 21 C-6.033631 13.63011293 -3.30417422 6.86954798 0 0 Z " fill="#6D6D6D" transform="translate(324,351)"/>
<path d="M0 0 C0.66 0.33 1.32 0.66 2 1 C2 1.99 2 2.98 2 4 C0.741875 3.9175 -0.51625 3.835 -1.8125 3.75 C-5.20902163 3.7351016 -5.20902163 3.7351016 -8 5.625 C-9.2766188 8.65696965 -9.41616519 10.74003936 -9 14 C-7.93654948 15.98029682 -7.93654948 15.98029682 -6 17 C-3.37429296 17.25069913 -3.37429296 17.25069913 -1 17 C-0.67 15.68 -0.34 14.36 0 13 C-0.99 13 -1.98 13 -3 13 C-3 12.01 -3 11.02 -3 10 C-0.69 10 1.62 10 4 10 C4.08096803 11.45742463 4.13917774 12.91612807 4.1875 14.375 C4.23970703 15.59316406 4.23970703 15.59316406 4.29296875 16.8359375 C4.19628906 17.55007813 4.09960938 18.26421875 4 19 C-0.00254616 21.66836411 -3.29313299 21.8340238 -8 21 C-10.75569447 18.81840855 -12.43588747 17.12822506 -14 14 C-14.17157511 10.20296813 -14.02377702 6.50291845 -11.83984375 3.296875 C-8.0917556 -0.1813508 -4.92715626 -0.56851803 0 0 Z " fill="#6C6C6C" transform="translate(216,351)"/>
<path d="M0 0 C4.29 0 8.58 0 13 0 C13 1.32 13 2.64 13 4 C10.03 4 7.06 4 4 4 C4 5.32 4 6.64 4 8 C6.31 8 8.62 8 11 8 C11 9.32 11 10.64 11 12 C8.36 12 5.72 12 3 12 C3 13.98 3 15.96 3 18 C6.3 18 9.6 18 13 18 C13 18.99 13 19.98 13 21 C8.71 21 4.42 21 0 21 C0 14.07 0 7.14 0 0 Z " fill="#717171" transform="translate(167,391)"/>
<path d="M0 0 C2.475 0.495 2.475 0.495 5 1 C5.99 4.63 6.98 8.26 8 12 C8.66 12 9.32 12 10 12 C10.1546875 10.9790625 10.1546875 10.9790625 10.3125 9.9375 C11.14725019 6.37084011 12.49472754 3.33777806 14 0 C15.32 0 16.64 0 18 0 C15.72564796 7.18216433 12.96415819 14.0758202 10 21 C7 20 7 20 6.0168457 18.26586914 C5.73929443 17.52973389 5.46174316 16.79359863 5.17578125 16.03515625 C4.86962891 15.23529297 4.56347656 14.43542969 4.24804688 13.61132812 C3.93931641 12.77021484 3.63058594 11.92910156 3.3125 11.0625 C2.83200195 9.80663086 2.83200195 9.80663086 2.34179688 8.52539062 C0 2.31887993 0 2.31887993 0 0 Z " fill="#6F6F6F" transform="translate(245,391)"/>
<path d="M0 0 C5.94 0 11.88 0 18 0 C18 1.32 18 2.64 18 4 C15.69 4 13.38 4 11 4 C11 9.61 11 15.22 11 21 C9.68 21 8.36 21 7 21 C7 15.39 7 9.78 7 4 C4.69 4 2.38 4 0 4 C0 2.68 0 1.36 0 0 Z " fill="#777777" transform="translate(275,351)"/>
<path d="M0 0 C0.66 0.33 1.32 0.66 2 1 C2 1.99 2 2.98 2 4 C0.88625 3.95875 -0.2275 3.9175 -1.375 3.875 C-5.04366025 3.58878141 -5.04366025 3.58878141 -7 6 C-7.24315656 8.66949409 -7.24315656 8.66949409 -7.125 11.625 C-7.09792969 13.12933594 -7.09792969 13.12933594 -7.0703125 14.6640625 C-7.04710937 15.43492187 -7.02390625 16.20578125 -7 17 C-5.906875 17 -4.81375 17 -3.6875 17 C-1.45833333 17 0.77083333 17 3 17 C3 17.99 3 18.98 3 20 C-0.4835745 21.74178725 -4.19892999 21.56712235 -8 21 C-10.98216673 18.81792679 -11.80523048 17.25062533 -12.37109375 13.6171875 C-12.58581704 9.25765404 -12.43782151 6.71510847 -10.125 2.9375 C-6.69587935 -0.18905118 -4.5744735 -0.19060306 0 0 Z " fill="#6B6B6B" transform="translate(331,391)"/>
<path d="M0 0 C0.33 1.32 0.66 2.64 1 4 C-0.98 4 -2.96 4 -5 4 C-4.95231597 5.87880872 -4.95231597 5.87880872 -4 8 C-2.989375 8.598125 -1.97875 9.19625 -0.9375 9.8125 C2 12 2 12 2.5625 15.625 C2.376875 16.73875 2.19125 17.8525 2 19 C-1.08888522 21.05925681 -1.70935927 21.2390374 -5.1875 21.125 C-6.445625 21.08375 -7.70375 21.0425 -9 21 C-9 19.68 -9 18.36 -9 17 C-6.69 17 -4.38 17 -2 17 C-2 16.01 -2 15.02 -2 14 C-3.134375 13.484375 -4.26875 12.96875 -5.4375 12.4375 C-8.67745101 10.59736555 -8.92308249 10.24357212 -10.125 6.4375 C-10 3 -10 3 -9 1.0625 C-6.00926074 -0.52633023 -3.31998061 -0.18792343 0 0 Z " fill="#6A6A6A" transform="translate(138,391)"/>
<path d="M0 0 C1.32 0 2.64 0 4 0 C4 5.94 4 11.88 4 18 C6.97 18 9.94 18 13 18 C13 18.99 13 19.98 13 21 C8.71 21 4.42 21 0 21 C0 14.07 0 7.14 0 0 Z " fill="#6C6C6C" transform="translate(359,351)"/>
<path d="M0 0 C1.98 0 3.96 0 6 0 C8.34168764 3.51253146 8.49623677 4.86469356 8 9 C6.25 11.875 6.25 11.875 4 14 C2.68 14 1.36 14 0 14 C0 9.38 0 4.76 0 0 Z " fill="#EAEAEA" transform="translate(134,355)"/>
<path d="M0 0 C1.32 0 2.64 0 4 0 C4 6.93 4 13.86 4 21 C2.68 21 1.36 21 0 21 C0 14.07 0 7.14 0 0 Z " fill="#727272" transform="translate(288,391)"/>
<path d="M0 0 C1.32 0 2.64 0 4 0 C4 6.93 4 13.86 4 21 C2.68 21 1.36 21 0 21 C0 14.07 0 7.14 0 0 Z " fill="#6E6E6E" transform="translate(172,351)"/>
<path d="M0 0 C1.32 0 2.64 0 4 0 C4 6.93 4 13.86 4 21 C2.68 21 1.36 21 0 21 C0 14.07 0 7.14 0 0 Z " fill="#717171" transform="translate(246,351)"/>
<path d="M0 0 C2.97 0.495 2.97 0.495 6 1 C5.67 2.65 5.34 4.3 5 6 C3.35 6 1.7 6 0 6 C0 4.02 0 2.04 0 0 Z " fill="#E0E0E0" transform="translate(210,394)"/>
<path d="M0 0 C1.5 1.3125 1.5 1.3125 3 3 C3 3.99 3 4.98 3 6 C1.68 6 0.36 6 -1 6 C-0.67 4.02 -0.34 2.04 0 0 Z " fill="#E3E3E3" transform="translate(324,359)"/>
</svg>
