<?xml version="1.0" encoding="UTF-8"?> <svg xmlns="http://www.w3.org/2000/svg" width="740" height="740" viewBox="0 0 740 740" fill="none"> <path d="M555.078 140H321.484C296.714 140 276.562 160.152 276.562 184.922V265.781H184.922C160.152 265.781 140 285.933 140 310.703V501.172C140 525.942 160.152 546.094 184.922 546.094H202.891V591.016C202.891 594.649 205.08 597.926 208.437 599.316C209.548 599.777 210.715 600.001 211.873 600.001C214.211 600.001 216.509 599.087 218.228 597.369L269.503 546.094H418.516C443.286 546.094 463.438 525.942 463.438 501.172V420.312H481.406V465.234C481.406 468.868 483.596 472.144 486.952 473.535C488.064 473.996 489.231 474.22 490.389 474.22C492.727 474.22 495.025 473.306 496.743 471.588L548.018 420.312H562.266C585.188 420.312 600 402.68 600 375.391V184.922C600 160.152 579.848 140 555.078 140ZM445.469 501.172C445.469 516.034 433.378 528.125 418.516 528.125H265.781C263.399 528.125 261.113 529.072 259.428 530.757L220.859 569.326V537.109C220.859 532.147 216.837 528.125 211.875 528.125H184.922C170.06 528.125 157.969 516.034 157.969 501.172V310.703C157.969 295.841 170.06 283.75 184.922 283.75H418.516C433.378 283.75 445.469 295.841 445.469 310.703V501.172ZM582.031 375.391C582.031 385.457 579.464 402.344 562.266 402.344H544.297C541.914 402.344 539.629 403.291 537.944 404.975L499.375 443.544V411.328C499.375 406.366 495.353 402.344 490.391 402.344H463.438V337.656H519.141C524.103 337.656 528.125 333.634 528.125 328.672C528.125 323.71 524.103 319.688 519.141 319.688H463.438V310.703C463.438 285.933 443.286 265.781 418.516 265.781H294.531V184.922C294.531 170.06 306.622 157.969 321.484 157.969H555.078C569.94 157.969 582.031 170.06 582.031 184.922V375.391Z" fill="white"></path> <path d="M519.141 211.875H357.422C352.46 211.875 348.438 215.897 348.438 220.859C348.438 225.821 352.46 229.844 357.422 229.844H519.141C524.103 229.844 528.125 225.821 528.125 220.859C528.125 215.897 524.103 211.875 519.141 211.875Z" fill="white"></path> <path d="M519.141 265.781H483.203C478.241 265.781 474.219 269.804 474.219 274.766C474.219 279.728 478.241 283.75 483.203 283.75H519.141C524.103 283.75 528.125 279.728 528.125 274.766C528.125 269.804 524.103 265.781 519.141 265.781Z" fill="white"></path> <path d="M220.859 355.625C225.81 355.625 229.844 351.591 229.844 346.641C229.844 341.69 225.81 337.656 220.859 337.656C215.909 337.656 211.875 341.69 211.875 346.641C211.875 351.591 215.909 355.625 220.859 355.625Z" fill="white"></path> <path d="M382.578 337.656H256.797C251.846 337.656 247.812 341.69 247.812 346.641C247.812 351.591 251.846 355.625 256.797 355.625H382.578C387.529 355.625 391.562 351.591 391.562 346.641C391.562 341.69 387.529 337.656 382.578 337.656Z" fill="white"></path> <path d="M382.578 391.562H292.734C287.772 391.562 283.75 395.585 283.75 400.547C283.75 405.509 287.772 409.531 292.734 409.531H382.578C387.54 409.531 391.562 405.509 391.562 400.547C391.562 395.585 387.54 391.562 382.578 391.562Z" fill="white"></path> <path d="M220.859 409.531H256.797C261.759 409.531 265.781 405.509 265.781 400.547C265.781 395.585 261.759 391.562 256.797 391.562H220.859C215.897 391.562 211.875 395.585 211.875 400.547C211.875 405.509 215.897 409.531 220.859 409.531Z" fill="white"></path> <path d="M310.703 445.469H222.656C217.694 445.469 213.672 449.491 213.672 454.453C213.672 459.415 217.694 463.438 222.656 463.438H310.703C315.665 463.438 319.688 459.415 319.688 454.453C319.688 449.491 315.665 445.469 310.703 445.469Z" fill="white"></path> </svg> 