<?xml version="1.0" encoding="UTF-8"?> <svg xmlns="http://www.w3.org/2000/svg" width="740" height="740" viewBox="0 0 740 740" fill="none"> <path d="M551.02 188.98C502.668 140.629 438.379 114 370 114C317.973 114 267.875 129.535 225.133 158.922C220.582 162.055 219.43 168.277 222.559 172.828C225.687 177.383 231.914 178.535 236.465 175.402C275.859 148.316 322.035 134 370 134C500.129 134 606 239.871 606 370C606 500.129 500.129 606 370 606C239.871 606 134 500.129 134 370C134 322.027 148.316 275.855 175.398 236.469C178.527 231.918 177.375 225.695 172.824 222.566C168.277 219.438 162.051 220.586 158.918 225.137C129.531 267.871 114 317.965 114 370C114 438.379 140.629 502.668 188.98 551.02C237.332 599.371 301.621 626 370 626C438.379 626 502.668 599.371 551.02 551.02C599.371 502.668 626 438.379 626 370C626 301.621 599.371 237.332 551.02 188.98V188.98Z" fill="white" stroke="white" stroke-width="6"></path> <path d="M196.047 206.051C198.61 206.051 201.172 205.074 203.125 203.121C207.028 199.219 207.028 192.887 203.125 188.98C199.219 185.074 192.887 185.074 188.981 188.98L188.977 188.984C185.071 192.891 185.075 199.219 188.977 203.125C190.93 205.078 193.489 206.051 196.047 206.051Z" fill="white" stroke="white" stroke-width="6"></path> <path d="M289.66 439.289C288.23 433.953 282.746 430.789 277.413 432.219C272.078 433.649 268.91 439.129 270.339 444.465C282.406 489.488 323.386 520.934 369.999 520.934C416.613 520.934 457.593 489.492 469.66 444.465C471.089 439.129 467.921 433.649 462.585 432.219C457.249 430.789 451.769 433.953 450.339 439.289C440.613 475.586 407.578 500.934 369.999 500.934C332.421 500.934 299.386 475.586 289.66 439.289V439.289Z" fill="white" stroke="white" stroke-width="6"></path> <path d="M424.531 366.066C427.617 354.559 438.09 346.52 450.004 346.52C461.914 346.52 472.386 354.559 475.472 366.066C476.668 370.531 480.707 373.48 485.125 373.48C485.98 373.48 486.851 373.367 487.718 373.137C493.054 371.707 496.218 366.223 494.789 360.891C489.367 340.652 470.953 326.52 450.004 326.52C429.054 326.52 410.636 340.652 405.215 360.891C403.785 366.223 406.949 371.707 412.285 373.137C417.625 374.566 423.105 371.398 424.531 366.066V366.066Z" fill="white" stroke="white" stroke-width="6"></path> <path d="M289.996 326.52C269.047 326.52 250.633 340.652 245.211 360.891C243.781 366.223 246.945 371.707 252.281 373.137C257.621 374.566 263.101 371.398 264.527 366.066C267.613 354.559 278.086 346.52 289.996 346.52C301.91 346.52 312.383 354.559 315.468 366.066C316.664 370.531 320.703 373.48 325.121 373.48C325.976 373.48 326.847 373.367 327.715 373.137C333.05 371.707 336.215 366.223 334.785 360.891C329.363 340.652 310.945 326.52 289.996 326.52V326.52Z" fill="white" stroke="white" stroke-width="6"></path> </svg> 