<?xml version="1.0" encoding="UTF-8"?> <svg xmlns="http://www.w3.org/2000/svg" width="740" height="740" viewBox="0 0 740 740" fill="none"> <path d="M623.924 609.904L569.99 539.741C568.31 537.549 565.799 536.155 563.049 535.881C526.459 532.252 506.924 524.483 491.221 518.237C477.33 512.713 462.971 507.002 444.44 507.002C416.213 507.002 394.635 522.053 379.998 539.112V538.741C388.151 519.944 409.881 490.284 443.639 490.284C458.162 490.284 469.471 494.784 482.576 499.995C493.51 504.342 507.119 509.756 527.014 513.936C532.42 515.073 537.721 511.612 538.857 506.205C539.99 500.803 536.529 495.498 531.127 494.366C512.912 490.538 500.725 485.69 489.963 481.409C476.213 475.94 461.994 470.284 443.639 470.284C408.494 470.284 383.76 493.834 369.998 515.284C356.237 493.834 331.502 470.284 296.354 470.284C278.003 470.284 263.78 475.94 250.026 481.413C234.507 487.584 215.19 495.268 179.011 498.854C173.514 499.401 169.503 504.295 170.046 509.791C170.593 515.288 175.491 519.299 180.987 518.756C219.964 514.889 241.612 506.28 257.421 499.995C270.518 494.784 281.831 490.284 296.354 490.284C330.116 490.284 351.85 519.948 359.998 538.744V539.112C345.358 522.053 323.784 506.998 295.553 506.998C277.026 506.998 262.663 512.713 248.764 518.241C233.069 524.483 213.538 532.252 176.944 535.881C174.198 536.155 171.686 537.549 170.003 539.741L116.073 609.904C113.749 612.924 113.347 617.002 115.03 620.42C116.714 623.834 120.19 625.998 123.999 625.998H615.998C619.806 625.998 623.283 623.834 624.967 620.42C626.65 617.002 626.248 612.924 623.924 609.904V609.904ZM444.44 526.998C459.139 526.998 470.58 531.549 483.838 536.823C499.213 542.94 520.061 551.229 556.748 555.326L595.592 605.862C528.76 604.42 497.041 591.803 475.631 583.287C463.205 578.346 454.998 575.08 444.44 575.08C425.959 575.08 413.291 588.951 408.041 600.865C407.994 600.959 407.948 601.053 407.901 601.151L405.623 605.998H379.998V576.073C388.241 557.049 410.244 526.998 444.44 526.998V526.998ZM183.249 555.326C219.936 551.229 240.78 542.936 256.167 536.819C269.413 531.549 280.858 526.998 295.553 526.998C329.748 526.998 351.756 557.049 359.998 576.073V605.998H334.37L332.096 601.151C332.049 601.053 332.002 600.959 331.956 600.865C326.702 588.951 314.038 575.08 295.557 575.08C284.999 575.08 276.792 578.346 264.366 583.287C242.956 591.803 211.233 604.42 144.405 605.862L183.249 555.326ZM271.76 601.869C282.768 597.49 288.831 595.08 295.553 595.08C304.182 595.08 309.6 601.869 312.1 605.998H261.178C264.983 604.565 268.483 603.174 271.76 601.869V601.869ZM427.897 605.998C430.397 601.869 435.815 595.08 444.44 595.08C451.166 595.08 457.229 597.49 468.24 601.873C471.514 603.174 475.018 604.565 478.818 605.998H427.897Z" fill="white"></path> <path d="M336.245 360.038C333.648 360.26 331.222 361.491 329.511 363.487C327.609 365.702 326.773 368.635 327.214 371.518C331.359 398.514 345.726 416.96 366.702 423.284C366.222 427.065 365.777 430.85 365.378 434.647L360.054 485.424C359.48 490.917 363.464 495.839 368.956 496.413C369.312 496.452 369.663 496.467 370.011 496.467C375.066 496.467 379.405 492.651 379.944 487.51L385.269 436.733C385.655 433.042 386.089 429.366 386.55 425.698C433.066 425.124 461.464 395.464 475.679 332.749C477.261 325.772 479.179 317.647 481.386 308.596C482.085 305.729 481.484 302.702 479.737 300.319C479.089 299.436 478.308 298.674 477.433 298.057L481.366 295.807C483.73 294.46 485.441 292.202 486.101 289.561C503.573 220.03 529.152 127.596 529.409 126.671C530.273 123.561 529.581 120.229 527.554 117.721C525.53 115.21 522.405 113.823 519.198 114.018C515.812 114.21 435.476 120.014 369.441 227.448C368.62 228.78 367.823 230.1 367.034 231.424C365.819 233.448 365.362 235.839 365.737 238.167L370.745 268.999H353.765C349.757 268.999 346.14 271.389 344.566 275.073C333.859 300.163 327.706 323.714 326.277 345.081C326.085 347.921 327.116 350.71 329.109 352.745L336.245 360.038ZM467.745 280.557L441.038 295.819C437.21 298.006 435.265 302.444 436.253 306.741C437.241 311.038 440.929 314.182 445.327 314.479L459.175 315.409C458.073 320.049 457.069 324.366 456.171 328.327C441.737 392.014 415.081 404.589 389.48 405.651C404.152 317.178 441.28 235.018 498.089 165.397C489.362 197.585 477.452 242.124 467.745 280.557V280.557ZM360.448 289.003H382.499C385.429 289.003 388.214 287.714 390.116 285.479C392.015 283.245 392.839 280.292 392.37 277.397L386.069 238.589C386.202 238.366 386.339 238.147 386.476 237.924C418.003 186.631 452.761 161.104 476.366 148.721C481.956 145.788 487.198 143.44 491.984 141.549C457.573 181.503 429.339 226.163 408.019 274.448C389.819 315.659 376.96 358.815 369.636 403.12C358.745 398.659 352.905 389.112 349.773 379.999H359.999C364.027 379.999 367.659 377.585 369.218 373.874C370.777 370.167 369.96 365.881 367.144 363.003L346.597 342.018C348.214 325.768 352.862 307.979 360.448 289.003V289.003Z" fill="white"></path> </svg> 