<?xml version="1.0" encoding="UTF-8"?> <svg xmlns="http://www.w3.org/2000/svg" width="740" height="740" viewBox="0 0 740 740" fill="none"> <path d="M314.284 309.417C294.12 309.417 273.439 301.827 257.761 286.743C241.335 270.968 237.348 251.054 233.131 229.97C228.455 206.51 223.606 182.245 200.433 159.973C197.749 157.386 196.81 153.456 198.018 149.949C199.244 146.403 202.407 143.892 206.125 143.547L208.751 143.279C256.362 138.43 315.606 132.565 362.143 177.281C376.883 191.426 385.795 213.142 386.006 235.318C386.217 256.44 378.799 275.607 365.114 289.253C351.64 302.728 333.201 309.417 314.284 309.417ZM226.73 160.797C243.29 182.877 247.832 205.686 251.934 226.233C255.691 245.036 258.93 261.308 271.024 272.942C291.552 292.646 328.812 298.492 351.544 275.741C361.549 265.755 366.973 251.456 366.82 235.529C366.648 218.374 359.939 201.776 348.842 191.119C313.325 156.983 268.437 157.117 226.73 160.797V160.797Z" fill="white"></path> <path d="M485.329 274.208C483.987 274.208 482.626 274.169 481.285 274.073C465.721 273.153 452.209 266.982 443.219 256.689C417.613 227.383 426.084 187.344 448.624 167.046C486.632 132.833 533.15 138.928 570.487 143.854L572.5 144.122C576.199 144.601 579.285 147.208 580.416 150.792C581.527 154.377 580.454 158.267 577.675 160.778C559.62 177.032 555.326 195.413 551.186 213.18C547.487 229.031 543.673 245.419 530.007 257.724C518.353 268.189 501.889 274.208 485.329 274.208V274.208ZM525.809 159.187C503.192 159.187 480.71 163.922 461.428 181.306C445.634 195.509 439.712 223.55 457.633 244.058C463.23 250.46 472.027 254.312 482.416 254.926C495.219 255.597 508.291 251.38 517.165 243.426C526.365 235.146 529.087 223.511 532.518 208.772C535.872 194.339 539.878 177.223 551.838 160.817C543.27 159.897 534.511 159.187 525.809 159.187V159.187ZM455.026 174.176H455.218H455.026Z" fill="white"></path> <path d="M401.225 371.192C396.701 371.192 392.657 367.972 391.814 363.352C379.202 295.214 314.418 239.113 313.747 238.557C309.722 235.126 309.262 229.07 312.693 225.064C316.124 221.019 322.162 220.521 326.206 223.99C329.081 226.444 396.797 284.941 410.674 359.864C411.632 365.058 408.202 370.061 402.988 371.019C402.394 371.134 401.819 371.192 401.225 371.192V371.192Z" fill="white"></path> <path d="M207.084 561.71H149.583C144.293 561.71 140 557.417 140 552.126V379.625C140 374.335 144.293 370.042 149.583 370.042C214.77 370.042 249.213 392.007 250.65 392.946C254.081 395.188 255.71 399.367 254.714 403.334L216.38 554.484C215.287 558.739 211.473 561.71 207.084 561.71V561.71ZM159.167 542.543H199.628L234.301 405.883C223.51 400.728 198.095 390.818 159.167 389.381V542.543Z" fill="white"></path> <path d="M389.169 600.044C343.935 600.044 256.477 562.017 208.349 539.323C203.557 537.081 201.526 531.35 203.768 526.577C206.011 521.767 211.742 519.754 216.533 521.997C254.1 539.707 346.101 580.877 389.169 580.877C435.783 580.877 545.666 526.117 577.273 509.845C572.289 503.328 561.997 494.626 542.504 494.626C524.813 494.626 502.388 501.699 480.691 508.561C457.633 515.825 433.77 523.377 413.128 523.377C373.567 523.377 321.031 504.44 318.808 503.635C313.843 501.833 311.275 496.332 313.077 491.349C314.878 486.385 320.36 483.835 325.363 485.618C325.861 485.81 376.96 504.21 413.128 504.21C430.819 504.21 453.244 497.137 474.941 490.275C497.998 483.011 521.861 475.459 542.504 475.459C587.22 475.459 599.027 509.327 599.506 510.765C600.982 515.192 599.065 520.042 594.925 522.265C588.964 525.408 448.376 600.044 389.169 600.044V600.044Z" fill="white"></path> <path d="M456.253 515.518C450.963 515.518 446.67 511.225 446.67 505.934V496.351C446.67 482.973 437.661 471.511 424.743 468.521L239.706 423.843C234.55 422.597 231.388 417.422 232.634 412.266C233.86 407.091 239.131 404.044 244.191 405.194L429.151 449.852C450.733 454.893 465.837 474.022 465.837 496.351V505.934C465.837 511.225 461.543 515.518 456.253 515.518V515.518Z" fill="white"></path> <path d="M401.244 371.153C401.224 371.153 401.205 371.153 401.186 371.153C395.915 371.115 391.641 366.841 391.66 361.57C391.66 358.254 392.868 280.168 480.058 227.67C484.581 224.949 490.465 226.386 493.206 230.948C495.947 235.471 494.471 241.375 489.948 244.115C412.38 290.825 410.865 358.791 410.846 361.666C410.789 366.898 406.515 371.153 401.244 371.153Z" fill="white"></path> </svg> 