<?xml version="1.0" encoding="UTF-8"?> <svg xmlns="http://www.w3.org/2000/svg" width="740" height="740" viewBox="0 0 740 740" fill="none"> <path d="M360.234 150.766V180.062C360.234 185.455 364.607 189.828 370 189.828C375.393 189.828 379.766 185.455 379.766 180.062V150.766C379.766 145.373 375.393 141 370 141C364.607 141 360.234 145.373 360.234 150.766Z" fill="white"></path> <path d="M262.579 169.778C257.908 172.474 256.307 178.446 259.002 183.118L273.651 208.499C276.355 213.184 282.33 214.764 286.991 212.075C291.662 209.379 293.263 203.407 290.568 198.735L275.919 173.354C273.224 168.683 267.251 167.083 262.579 169.778V169.778Z" fill="white"></path> <path d="M197.273 244.847C192.602 242.153 186.631 243.753 183.933 248.423C181.237 253.095 182.839 259.067 187.511 261.763L212.891 276.411C217.554 279.102 223.529 277.516 226.231 272.835C228.928 268.163 227.326 262.192 222.654 259.495L197.273 244.847Z" fill="white"></path> <path d="M464.081 173.354L449.432 198.735C446.736 203.407 448.338 209.379 453.009 212.075C457.681 214.769 463.65 213.173 466.348 208.499L480.997 183.118C483.693 178.446 482.092 172.474 477.421 169.778C472.745 167.082 466.777 168.685 464.081 173.354V173.354Z" fill="white"></path> <path d="M527.108 276.411L552.489 261.762C557.16 259.066 558.762 253.094 556.065 248.423C553.369 243.752 547.397 242.149 542.725 244.846L517.345 259.495C512.674 262.191 511.072 268.163 513.768 272.835C516.472 277.519 522.448 279.099 527.108 276.411Z" fill="white"></path> <path d="M416.875 560.922C422.268 560.922 426.641 556.55 426.641 551.156C426.641 545.763 422.268 541.391 416.875 541.391C411.482 541.391 407.109 545.763 407.109 551.156C407.109 556.55 411.482 560.922 416.875 560.922Z" fill="white"></path> <path d="M610.234 492.562H521.27C511.466 492.562 503.271 485.374 501.785 475.465C499.751 461.943 500.069 447.444 500.379 433.411C500.871 411.134 501.429 385.885 494.236 359.071C485.995 328.345 468.828 300.252 441.76 273.187L400.324 231.751C396.511 227.939 390.329 227.938 386.513 231.751C378.223 240.04 372.668 250.282 370 261.19C367.332 250.282 361.776 240.041 353.487 231.751C349.674 227.938 343.49 227.938 339.677 231.751L298.241 273.187C271.17 300.253 254.005 328.346 245.763 359.072C238.57 385.887 239.129 411.136 239.621 433.422C239.93 447.445 240.249 461.946 238.213 475.471C236.729 485.374 228.534 492.562 218.73 492.562H129.766C124.372 492.562 120 496.936 120 502.328V590.219C120 595.611 124.372 599.984 129.766 599.984H243.906C309.687 599.984 354.391 541.418 369.988 482.906C373.293 495.366 377.854 507.504 383.645 519.063C386.055 523.871 391.918 525.843 396.751 523.42C401.573 521.004 403.523 515.137 401.107 510.314C388.792 485.733 382.607 458.261 383.221 430.867C383.635 412.443 383.933 399.132 380.599 388.009C380.047 386.18 379.766 384.287 379.766 382.386C379.766 373.842 385.495 366.16 393.706 363.702C404.009 360.608 414.919 366.488 418.019 376.801C421.014 386.793 422.383 395.176 422.734 401.551V432.016C422.734 437.408 427.107 441.781 432.5 441.781C437.893 441.781 442.266 437.408 442.266 432.016V400.766C442.266 380.669 433.948 356.247 418.126 334.984C407.074 320.136 399.412 308.661 393.288 297.789C385.362 283.683 385.982 266.532 394.215 253.265L427.948 286.997C482.862 341.903 481.841 388.204 480.851 432.992C480.54 447.146 480.187 463.191 482.47 478.367C485.402 497.91 501.72 512.094 521.27 512.094H600.469V580.453H496.094C481.91 580.453 467.746 577.023 455.135 570.537C450.338 568.07 444.451 569.957 441.983 574.754C439.517 579.55 441.404 585.438 446.2 587.905C461.563 595.808 478.816 599.984 496.094 599.984H610.234C615.627 599.984 620 595.611 620 590.219V502.328C620 496.936 615.627 492.562 610.234 492.562V492.562ZM359.396 388.03C356.068 399.132 356.366 412.443 356.78 430.867C358.327 499.884 312.691 580.453 243.906 580.453H139.531V512.094H218.73C238.281 512.094 254.598 497.91 257.528 478.372C259.812 463.194 259.46 447.148 259.148 432.982C258.158 388.205 257.135 341.904 312.052 286.998L345.784 253.266C354.018 266.533 354.638 283.682 346.716 297.781C326.675 333.36 297.734 356.286 297.734 400.766V432.016C297.734 437.408 302.106 441.781 307.5 441.781C312.894 441.781 317.266 437.408 317.266 432.016V401.564C317.393 400.61 317.397 392.098 321.979 376.81C325.082 366.49 335.995 360.613 346.312 363.705C354.51 366.159 360.234 373.841 360.234 382.387C360.234 384.288 359.954 386.18 359.396 388.03V388.03ZM400.027 343.356C396.086 343.281 392.07 343.801 388.1 344.994C380.947 347.135 374.735 351.266 370.004 356.661C365.274 351.266 359.066 347.135 351.918 344.996C347.942 343.804 343.926 343.276 339.979 343.354C350.256 329.376 357.654 318.161 363.739 307.356C366.59 302.284 368.662 296.937 370.002 291.471C371.343 296.938 373.416 302.289 376.268 307.364C382.346 318.159 389.747 329.377 400.027 343.356V343.356Z" fill="white"></path> </svg> 