<?xml version="1.0" encoding="UTF-8"?> <svg xmlns="http://www.w3.org/2000/svg" width="740" height="740" viewBox="0 0 740 740" fill="none"> <path d="M280.767 362.209C302.91 362.209 320.924 344.194 320.924 322.051C320.924 299.908 302.909 281.893 280.767 281.893C258.623 281.893 240.609 299.908 240.609 322.051C240.609 344.194 258.623 362.209 280.767 362.209V362.209ZM280.767 296.893C294.639 296.893 305.924 308.179 305.924 322.051C305.924 335.923 294.639 347.209 280.767 347.209C266.895 347.209 255.609 335.923 255.609 322.051C255.609 308.179 266.895 296.893 280.767 296.893Z" fill="white" stroke="white" stroke-width="5"></path> <path d="M369.182 320.178C390.786 320.178 408.364 302.601 408.364 280.996C408.364 259.391 390.787 241.814 369.182 241.814C347.577 241.814 329.999 259.391 329.999 280.996C329.999 302.601 347.577 320.178 369.182 320.178V320.178ZM369.182 256.814C382.516 256.814 393.364 267.662 393.364 280.996C393.364 294.33 382.516 305.178 369.182 305.178C355.848 305.178 344.999 294.33 344.999 280.996C344.999 267.662 355.848 256.814 369.182 256.814V256.814Z" fill="white" stroke="white" stroke-width="5"></path> <path d="M296.888 552.478C318.492 552.478 336.07 534.901 336.07 513.296C336.07 491.691 318.493 474.114 296.888 474.114C275.283 474.114 257.705 491.691 257.705 513.296C257.705 534.901 275.283 552.478 296.888 552.478V552.478ZM296.888 489.115C310.222 489.115 321.07 499.963 321.07 513.297C321.07 526.631 310.222 537.479 296.888 537.479C283.554 537.479 272.705 526.631 272.705 513.297C272.705 499.963 283.554 489.115 296.888 489.115Z" fill="white" stroke="white" stroke-width="5"></path> <path d="M389.157 582.086C410.761 582.086 428.339 564.509 428.339 542.904C428.339 521.299 410.762 503.722 389.157 503.722C367.552 503.722 349.974 521.299 349.974 542.904C349.974 564.509 367.551 582.086 389.157 582.086ZM389.157 518.722C402.491 518.722 413.339 529.57 413.339 542.904C413.339 556.238 402.491 567.086 389.157 567.086C375.823 567.086 364.974 556.238 364.974 542.904C364.974 529.57 375.823 518.722 389.157 518.722Z" fill="white" stroke="white" stroke-width="5"></path> <path d="M198.81 420.924C198.81 446.136 219.321 466.648 244.534 466.648C269.747 466.648 290.258 446.136 290.258 420.924C290.258 395.711 269.747 375.199 244.534 375.199C219.321 375.199 198.81 395.711 198.81 420.924ZM244.534 390.199C261.475 390.199 275.259 403.982 275.259 420.924C275.259 437.865 261.476 451.648 244.534 451.648C227.592 451.648 213.809 437.865 213.809 420.924C213.809 403.982 227.592 390.199 244.534 390.199Z" fill="white" stroke="white" stroke-width="5"></path> <path d="M160 413.06C160 526.197 257.466 612.195 371.201 619.123C371.356 619.132 371.511 619.137 371.664 619.137C375.597 619.137 378.9 616.072 379.142 612.093C379.394 607.96 376.246 604.404 372.113 604.152C261.582 597.419 175 513.482 175 413.06C175 299.282 283.332 211.49 407.129 222.704C412.761 228.573 419.691 233.277 426.943 236.72C426.348 239.461 426.452 242.385 427.172 245.028L442.016 299.624C438.56 303.663 437.359 309.162 438.738 314.225L442.271 327.223C444.42 335.14 452.331 340.204 460.417 338.802L467.422 369.14C442.089 380.681 428.236 396.136 428.236 413.061C428.236 430.046 442.394 445.757 468.101 457.299C477.243 461.403 485.154 467.028 491.643 474.031C499.893 510.247 502.43 521.738 508.477 539.943C502.879 564.361 486.141 583.079 462.29 591.478C444.093 597.886 425.153 601.991 405.998 603.679C401.872 604.043 398.821 607.682 399.185 611.807C399.548 615.934 403.201 618.979 407.314 618.62C427.718 616.822 447.892 612.45 467.272 605.626C489.335 597.857 506.755 582.117 516.579 561.821C526.609 586.429 535.751 601.636 544.25 616.456C548.545 623.951 557.369 627.603 565.708 625.336C574.045 623.069 579.805 615.453 579.717 606.814C579.459 581.69 580.121 543.923 562.469 487.653C561.229 483.701 557.022 481.502 553.068 482.742C549.116 483.982 546.918 488.191 548.157 492.143C564.727 544.958 564.441 579.999 564.718 606.968C564.738 608.784 563.527 610.384 561.774 610.861C560.024 611.338 558.166 610.57 557.262 608.994C525.707 553.964 521.731 537.641 505.823 468.764C505.823 468.764 474.919 334.933 474.919 334.932L496.958 328.94L508.128 364.543V364.544L537.678 458.735C538.918 462.687 543.124 464.886 547.078 463.646C551.03 462.406 553.229 458.197 551.989 454.245L524.639 367.063C565.961 350.321 577.52 294.823 542.144 263.931C527.647 251.272 511.396 240.474 493.832 231.747L492.605 227.235C491.856 224.477 490.471 222.004 488.586 219.963C496.157 208.784 503.711 191.494 498.21 171.261C492.929 151.84 479.946 144.347 466.202 136.415C457.867 131.604 449.247 126.629 440.931 118.352C432.85 110.313 419.502 113.924 416.601 124.966C413.621 136.315 408.705 144.97 403.953 153.34C396.03 167.293 386.381 183.531 396.601 206.987C269.289 201.506 160 293.848 160 413.06V413.06ZM486.101 450.035C482.362 447.638 478.413 445.486 474.245 443.615C454.538 434.767 443.235 423.63 443.235 413.06C443.235 402.998 453.193 392.661 470.872 384.085L486.101 450.035ZM532.276 275.23C558.826 298.415 550.263 339.769 520.137 352.719C512.39 328.027 514.491 334.722 511.42 324.933C519.265 321.93 523.313 313.523 521.204 305.761L517.671 292.763C516.286 287.674 512.443 283.553 507.45 281.832L499.238 251.63C511.062 258.467 522.127 266.368 532.276 275.23ZM501.961 295.991L501.964 295.99C502.446 295.86 503.04 296.124 503.195 296.698L506.728 309.695C506.874 310.231 506.556 310.785 506.021 310.93C495.985 313.659 467.128 321.504 457.979 323.992C457.455 324.138 456.893 323.83 456.744 323.285L453.211 310.287C453.056 309.714 453.449 309.179 453.918 309.052L501.961 295.991ZM492.246 283.088L455.762 293.007L441.647 241.091C441.282 239.756 442.119 238.365 443.409 238.013L475.054 229.409C476.283 229.072 477.743 229.743 478.131 231.171C482.773 248.246 479.517 236.27 492.246 283.088ZM416.997 160.749C421.879 152.153 427.397 142.434 430.91 129.539C440.434 138.864 450.132 144.46 458.706 149.409C471.113 156.57 480.078 161.743 483.736 175.199C488.207 191.64 480.51 205.976 474.134 214.393C473.168 214.48 472.037 214.686 471.117 214.936L439.472 223.54C438.507 223.802 437.401 224.219 436.599 224.598C423.332 219.153 412.264 209.618 408.47 195.662C404.812 182.207 409.923 173.206 416.997 160.749Z" fill="white" stroke="white" stroke-width="5"></path> </svg> 