<?xml version="1.0" encoding="UTF-8"?> <svg xmlns="http://www.w3.org/2000/svg" width="740" height="740" viewBox="0 0 740 740" fill="none"> <path d="M400.125 352.665C401.423 355.203 404.004 356.669 406.673 356.669C407.788 356.669 408.932 356.412 409.996 355.87C410.428 355.65 453.592 333.723 474.881 326.998C478.739 325.774 480.879 321.652 479.655 317.795C478.437 313.938 474.346 311.789 470.452 313.007C448.026 320.098 405.156 341.878 403.337 342.802C399.729 344.635 398.292 349.051 400.125 352.665Z" fill="white" stroke="white" stroke-width="4"></path> <path d="M406.673 268.67C407.788 268.67 408.932 268.413 409.995 267.871C410.428 267.651 453.592 245.724 474.881 238.999C478.738 237.775 480.879 233.653 479.655 229.796C478.437 225.939 474.345 223.79 470.452 225.008C448.026 232.099 405.155 253.879 403.337 254.803C399.729 256.636 398.292 261.051 400.125 264.666C401.422 267.203 404.004 268.67 406.673 268.67Z" fill="white" stroke="white" stroke-width="4"></path> <path d="M582.666 254.003C578.611 254.003 575.333 257.289 575.333 261.336V547.336C575.333 559.465 565.462 569.336 553.333 569.336H377.333V552.462C388.026 548.722 415.877 540.003 443.333 540.003C507.214 540.003 550.591 554.149 551.023 554.295C553.23 555.028 555.695 554.662 557.623 553.283C559.537 551.904 560.666 549.69 560.666 547.335V224.67C560.666 221.231 558.283 218.253 554.924 217.513C554.924 217.513 549.175 216.23 539.348 214.425C535.38 213.692 531.545 216.332 530.812 220.306C530.078 224.296 532.711 228.116 536.693 228.849C540.441 229.539 543.579 230.147 545.999 230.632V537.59C529.382 533.233 492.481 525.336 443.332 525.336C411.381 525.336 379.995 535.83 370.285 539.387C361.653 535.574 335.562 525.336 303.999 525.336C253.487 525.336 211.877 533.667 193.999 537.898V230.346C208.644 226.745 251.896 217.336 303.999 217.336C330.737 217.336 353.667 225.659 362.666 229.422V518.003C362.666 520.643 364.088 523.085 366.383 524.383C368.679 525.688 371.509 525.651 373.776 524.287C374.502 523.855 447.16 480.456 511.649 458.962C514.648 457.958 516.665 455.164 516.665 452.003V151.337C516.665 148.931 515.485 146.68 513.505 145.309C511.539 143.937 509.017 143.622 506.751 144.466C448.077 166.473 388.707 203.418 388.113 203.785C384.68 205.933 383.632 210.458 385.78 213.89C387.922 217.323 392.446 218.371 395.886 216.223C396.428 215.878 448.077 183.743 501.998 162.059V446.753C451.941 464.148 399.676 492.55 377.332 505.265V224.67C377.332 221.891 375.763 219.353 373.276 218.107C372.015 217.484 341.963 202.67 303.999 202.67C237.735 202.67 186.791 217.007 184.649 217.623C181.503 218.517 179.332 221.4 179.332 224.67V547.337C179.332 549.632 180.418 551.803 182.244 553.189C183.534 554.164 185.089 554.671 186.666 554.671C187.341 554.671 188.015 554.575 188.675 554.384C189.181 554.245 239.891 540.004 303.999 540.004C330.81 540.004 353.719 548.349 362.666 552.096V569.337H186.666C174.537 569.337 164.666 559.466 164.666 547.337V261.337C164.666 257.29 161.381 254.004 157.333 254.004C153.285 254.004 150 257.29 150 261.337V547.337C150 567.554 166.448 584.004 186.667 584.004H553.333C573.551 584.004 590 567.555 590 547.337V261.337C589.999 257.289 586.722 254.003 582.666 254.003Z" fill="white" stroke="white" stroke-width="4"></path> <path d="M400.125 308.665C401.423 311.203 404.004 312.669 406.673 312.669C407.788 312.669 408.932 312.412 409.996 311.87C410.428 311.65 453.592 289.723 474.881 282.998C478.739 281.774 480.879 277.652 479.655 273.795C478.437 269.938 474.346 267.789 470.452 269.007C448.026 276.098 405.156 297.878 403.337 298.802C399.729 300.635 398.292 305.051 400.125 308.665Z" fill="white" stroke="white" stroke-width="4"></path> <path d="M400.125 396.665C401.423 399.203 404.004 400.669 406.673 400.669C407.788 400.669 408.932 400.412 409.996 399.87C410.428 399.65 453.592 377.723 474.881 370.998C478.739 369.774 480.879 365.652 479.655 361.795C478.437 357.938 474.346 355.789 470.452 357.007C448.026 364.098 405.156 385.878 403.337 386.802C399.729 388.635 398.292 393.051 400.125 396.665Z" fill="white" stroke="white" stroke-width="4"></path> <path d="M327.673 280.096C282.39 269.469 230.931 283.007 228.768 283.586C224.86 284.635 222.535 288.653 223.584 292.569C224.464 295.847 227.426 298.003 230.661 298.003C231.291 298.003 231.929 297.922 232.568 297.754C233.059 297.615 282.603 284.583 324.33 294.373C328.253 295.29 332.22 292.848 333.144 288.902C334.067 284.965 331.618 281.019 327.673 280.096Z" fill="white" stroke="white" stroke-width="4"></path> <path d="M327.673 324.096C282.39 313.477 230.931 327.007 228.768 327.586C224.86 328.635 222.535 332.654 223.584 336.569C224.464 339.847 227.426 342.003 230.661 342.003C231.291 342.003 231.929 341.923 232.568 341.754C233.059 341.615 282.603 328.583 324.33 338.373C328.253 339.29 332.22 336.848 333.144 332.903C334.067 328.965 331.618 325.019 327.673 324.096Z" fill="white" stroke="white" stroke-width="4"></path> <path d="M400.125 440.665C401.423 443.203 404.004 444.669 406.673 444.669C407.788 444.669 408.932 444.412 409.996 443.87C410.428 443.65 453.592 421.723 474.881 414.998C478.739 413.774 480.879 409.652 479.655 405.795C478.437 401.938 474.346 399.789 470.452 401.007C448.026 408.098 405.156 429.878 403.337 430.802C399.729 432.635 398.292 437.051 400.125 440.665Z" fill="white" stroke="white" stroke-width="4"></path> <path d="M327.673 368.096C282.39 357.477 230.931 370.999 228.768 371.586C224.86 372.635 222.535 376.654 223.584 380.569C224.464 383.847 227.426 386.011 230.661 386.011C231.291 386.011 231.929 385.923 232.568 385.754C233.059 385.615 282.603 372.583 324.33 382.373C328.253 383.29 332.22 380.848 333.144 376.902C334.067 372.965 331.618 369.019 327.673 368.096Z" fill="white" stroke="white" stroke-width="4"></path> <path d="M327.673 456.095C282.39 445.469 230.931 459.007 228.768 459.586C224.86 460.634 222.535 464.654 223.584 468.569C224.464 471.847 227.426 474.011 230.661 474.011C231.291 474.011 231.929 473.923 232.568 473.754C233.059 473.614 282.603 460.583 324.33 470.373C328.253 471.282 332.22 468.847 333.144 464.902C334.067 460.964 331.618 457.019 327.673 456.095Z" fill="white" stroke="white" stroke-width="4"></path> <path d="M327.673 412.095C282.39 401.469 230.931 414.999 228.768 415.586C224.86 416.635 222.535 420.654 223.584 424.569C224.464 427.847 227.426 430.011 230.661 430.011C231.291 430.011 231.929 429.923 232.568 429.754C233.059 429.615 282.603 416.583 324.33 426.373C328.253 427.29 332.22 424.848 333.144 420.902C334.067 416.965 331.618 413.019 327.673 412.095Z" fill="white" stroke="white" stroke-width="4"></path> </svg> 